<svg id="visual" viewBox="0 0 1200 100" width="1200" height="100" xmlns="http://www.w3.org/2000/svg" xmlns:xlink="http://www.w3.org/1999/xlink" version="1.1"><path d="M0 15L25 16.3C50 17.7 100 20.3 150 21.5C200 22.7 250 22.3 300 21.7C350 21 400 20 450 22.5C500 25 550 31 600 31.5C650 32 700 27 750 21.2C800 15.3 850 8.7 900 5.7C950 2.7 1000 3.3 1050 8C1100 12.7 1150 21.3 1175 25.7L1200 30L1200 0L1175 0C1150 0 1100 0 1050 0C1000 0 950 0 900 0C850 0 800 0 750 0C700 0 650 0 600 0C550 0 500 0 450 0C400 0 350 0 300 0C250 0 200 0 150 0C100 0 50 0 25 0L0 0Z" fill="#ffffff"></path><path d="M0 26L25 26.7C50 27.3 100 28.7 150 31.3C200 34 250 38 300 38C350 38 400 34 450 36.5C500 39 550 48 600 47.3C650 46.7 700 36.3 750 31.7C800 27 850 28 900 28.2C950 28.3 1000 27.7 1050 31.5C1100 35.3 1150 43.7 1175 47.8L1200 52L1200 28L1175 23.7C1150 19.3 1100 10.7 1050 6C1000 1.3 950 0.7 900 3.7C850 6.7 800 13.3 750 19.2C700 25 650 30 600 29.5C550 29 500 23 450 20.5C400 18 350 19 300 19.7C250 20.3 200 20.7 150 19.5C100 18.3 50 15.7 25 14.3L0 13Z" fill="#e5e5e5"></path><path d="M0 38L25 40C50 42 100 46 150 46.7C200 47.3 250 44.7 300 44.2C350 43.7 400 45.3 450 49.3C500 53.3 550 59.7 600 59C650 58.3 700 50.7 750 47C800 43.3 850 43.7 900 44.5C950 45.3 1000 46.7 1050 48C1100 49.3 1150 50.7 1175 51.3L1200 52L1200 50L1175 45.8C1150 41.7 1100 33.3 1050 29.5C1000 25.7 950 26.3 900 26.2C850 26 800 25 750 29.7C700 34.3 650 44.7 600 45.3C550 46 500 37 450 34.5C400 32 350 36 300 36C250 36 200 32 150 29.3C100 26.7 50 25.3 25 24.7L0 24Z" fill="#cbcbcb"></path><path d="M0 40L25 42C50 44 100 48 150 50.2C200 52.3 250 52.7 300 53C350 53.3 400 53.7 450 56.2C500 58.7 550 63.3 600 61.7C650 60 700 52 750 49.7C800 47.3 850 50.7 900 52.2C950 53.7 1000 53.3 1050 54.3C1100 55.3 1150 57.7 1175 58.8L1200 60L1200 50L1175 49.3C1150 48.7 1100 47.3 1050 46C1000 44.7 950 43.3 900 42.5C850 41.7 800 41.3 750 45C700 48.7 650 56.3 600 57C550 57.7 500 51.3 450 47.3C400 43.3 350 41.7 300 42.2C250 42.7 200 45.3 150 44.7C100 44 50 40 25 38L0 36Z" fill="#b2b2b2"></path><path d="M0 44L25 46.5C50 49 100 54 150 56.7C200 59.3 250 59.7 300 60.2C350 60.7 400 61.3 450 62.7C500 64 550 66 600 63.8C650 61.7 700 55.3 750 53C800 50.7 850 52.3 900 53.3C950 54.3 1000 54.7 1050 56.8C1100 59 1150 63 1175 65L1200 67L1200 58L1175 56.8C1150 55.7 1100 53.3 1050 52.3C1000 51.3 950 51.7 900 50.2C850 48.7 800 45.3 750 47.7C700 50 650 58 600 59.7C550 61.3 500 56.7 450 54.2C400 51.7 350 51.3 300 51C250 50.7 200 50.3 150 48.2C100 46 50 42 25 40L0 38Z" fill="#9a9a9a"></path><path d="M0 46L25 48.3C50 50.7 100 55.3 150 58.3C200 61.3 250 62.7 300 63.7C350 64.7 400 65.3 450 67C500 68.7 550 71.3 600 69.8C650 68.3 700 62.7 750 60.3C800 58 850 59 900 59.8C950 60.7 1000 61.3 1050 63.5C1100 65.7 1150 69.3 1175 71.2L1200 73L1200 65L1175 63C1150 61 1100 57 1050 54.8C1000 52.7 950 52.3 900 51.3C850 50.3 800 48.7 750 51C700 53.3 650 59.7 600 61.8C550 64 500 62 450 60.7C400 59.3 350 58.7 300 58.2C250 57.7 200 57.3 150 54.7C100 52 50 47 25 44.5L0 42Z" fill="#838383"></path><path d="M0 54L25 55C50 56 100 58 150 60C200 62 250 64 300 66.2C350 68.3 400 70.7 450 73.5C500 76.3 550 79.7 600 77.7C650 75.7 700 68.3 750 66C800 63.7 850 66.3 900 66.8C950 67.3 1000 65.7 1050 67.3C1100 69 1150 74 1175 76.5L1200 79L1200 71L1175 69.2C1150 67.3 1100 63.7 1050 61.5C1000 59.3 950 58.7 900 57.8C850 57 800 56 750 58.3C700 60.7 650 66.3 600 67.8C550 69.3 500 66.7 450 65C400 63.3 350 62.7 300 61.7C250 60.7 200 59.3 150 56.3C100 53.3 50 48.7 25 46.3L0 44Z" fill="#6c6c6c"></path><path d="M0 62L25 64.5C50 67 100 72 150 73.3C200 74.7 250 72.3 300 72.7C350 73 400 76 450 78.8C500 81.7 550 84.3 600 83.7C650 83 700 79 750 76.2C800 73.3 850 71.7 900 71C950 70.3 1000 70.7 1050 72.8C1100 75 1150 79 1175 81L1200 83L1200 77L1175 74.5C1150 72 1100 67 1050 65.3C1000 63.7 950 65.3 900 64.8C850 64.3 800 61.7 750 64C700 66.3 650 73.7 600 75.7C550 77.7 500 74.3 450 71.5C400 68.7 350 66.3 300 64.2C250 62 200 60 150 58C100 56 50 54 25 53L0 52Z" fill="#565656"></path><path d="M0 67L25 69.5C50 72 100 77 150 79.5C200 82 250 82 300 81.7C350 81.3 400 80.7 450 82.2C500 83.7 550 87.3 600 88.8C650 90.3 700 89.7 750 87C800 84.3 850 79.7 900 78.2C950 76.7 1000 78.3 1050 79.8C1100 81.3 1150 82.7 1175 83.3L1200 84L1200 81L1175 79C1150 77 1100 73 1050 70.8C1000 68.7 950 68.3 900 69C850 69.7 800 71.3 750 74.2C700 77 650 81 600 81.7C550 82.3 500 79.7 450 76.8C400 74 350 71 300 70.7C250 70.3 200 72.7 150 71.3C100 70 50 65 25 62.5L0 60Z" fill="#404040"></path><path d="M0 78L25 78.8C50 79.7 100 81.3 150 82.3C200 83.3 250 83.7 300 84.5C350 85.3 400 86.7 450 88.3C500 90 550 92 600 92.3C650 92.7 700 91.3 750 89C800 86.7 850 83.3 900 82.8C950 82.3 1000 84.7 1050 85.5C1100 86.3 1150 85.7 1175 85.3L1200 85L1200 82L1175 81.3C1150 80.7 1100 79.3 1050 77.8C1000 76.3 950 74.7 900 76.2C850 77.7 800 82.3 750 85C700 87.7 650 88.3 600 86.8C550 85.3 500 81.7 450 80.2C400 78.7 350 79.3 300 79.7C250 80 200 80 150 77.5C100 75 50 70 25 67.5L0 65Z" fill="#2c2c2c"></path><path d="M0 85L25 85.8C50 86.7 100 88.3 150 88.7C200 89 250 88 300 88C350 88 400 89 450 90.2C500 91.3 550 92.7 600 92.8C650 93 700 92 750 90.3C800 88.7 850 86.3 900 86.5C950 86.7 1000 89.3 1050 90.3C1100 91.3 1150 90.7 1175 90.3L1200 90L1200 83L1175 83.3C1150 83.7 1100 84.3 1050 83.5C1000 82.7 950 80.3 900 80.8C850 81.3 800 84.7 750 87C700 89.3 650 90.7 600 90.3C550 90 500 88 450 86.3C400 84.7 350 83.3 300 82.5C250 81.7 200 81.3 150 80.3C100 79.3 50 77.7 25 76.8L0 76Z" fill="#1a1a1a"></path><path d="M0 101L25 101C50 101 100 101 150 101C200 101 250 101 300 101C350 101 400 101 450 101C500 101 550 101 600 101C650 101 700 101 750 101C800 101 850 101 900 101C950 101 1000 101 1050 101C1100 101 1150 101 1175 101L1200 101L1200 88L1175 88.3C1150 88.7 1100 89.3 1050 88.3C1000 87.3 950 84.7 900 84.5C850 84.3 800 86.7 750 88.3C700 90 650 91 600 90.8C550 90.7 500 89.3 450 88.2C400 87 350 86 300 86C250 86 200 87 150 86.7C100 86.3 50 84.7 25 83.8L0 83Z" fill="#000000"></path></svg>