<svg id="visual" viewBox="0 0 1200 100" width="1200" height="100" xmlns="http://www.w3.org/2000/svg" xmlns:xlink="http://www.w3.org/1999/xlink" version="1.1"><path d="M0 73L28.5 72.8C57 72.7 114 72.3 171.2 70.2C228.3 68 285.7 64 342.8 63.8C400 63.7 457 67.3 514.2 68.5C571.3 69.7 628.7 68.3 685.8 65.5C743 62.7 800 58.3 857.2 54.7C914.3 51 971.7 48 1028.8 48.3C1086 48.7 1143 52.3 1171.5 54.2L1200 56L1200 0L1171.5 0C1143 0 1086 0 1028.8 0C971.7 0 914.3 0 857.2 0C800 0 743 0 685.8 0C628.7 0 571.3 0 514.2 0C457 0 400 0 342.8 0C285.7 0 228.3 0 171.2 0C114 0 57 0 28.5 0L0 0Z" fill="#d8c78f"></path><path d="M0 41L28.5 40.3C57 39.7 114 38.3 171.2 40.2C228.3 42 285.7 47 342.8 47.5C400 48 457 44 514.2 40.3C571.3 36.7 628.7 33.3 685.8 34C743 34.7 800 39.3 857.2 39.2C914.3 39 971.7 34 1028.8 32.8C1086 31.7 1143 34.3 1171.5 35.7L1200 37L1200 0L1171.5 0C1143 0 1086 0 1028.8 0C971.7 0 914.3 0 857.2 0C800 0 743 0 685.8 0C628.7 0 571.3 0 514.2 0C457 0 400 0 342.8 0C285.7 0 228.3 0 171.2 0C114 0 57 0 28.5 0L0 0Z" fill="#c5ae64"></path><path d="M0 21L28.5 22.3C57 23.7 114 26.3 171.2 27.7C228.3 29 285.7 29 342.8 26.8C400 24.7 457 20.3 514.2 19.8C571.3 19.3 628.7 22.7 685.8 22.5C743 22.3 800 18.7 857.2 16.7C914.3 14.7 971.7 14.3 1028.8 14.3C1086 14.3 1143 14.7 1171.5 14.8L1200 15L1200 0L1171.5 0C1143 0 1086 0 1028.8 0C971.7 0 914.3 0 857.2 0C800 0 743 0 685.8 0C628.7 0 571.3 0 514.2 0C457 0 400 0 342.8 0C285.7 0 228.3 0 171.2 0C114 0 57 0 28.5 0L0 0Z" fill="#b29538"></path></svg>